<svg xmlns="http://www.w3.org/2000/svg" viewBox="0 0 512 512" id="agreement">
  <g>
    <path fill="#fb3" d="m360.8741324,157.1965905l-2.4498273-3.9634149c16.0409075-12.6080284,34.8281182-24.2798171,56.642504-34.9997621,2.2469754-1.0922797,4.9932786-.2808719,6.2103902,1.9036875l83.4657724,146.5215186c1.1546957,2.0753314.6553678,4.6968027-1.2483196,6.1011623-18.0538229,13.1853763-42.8485719,23.4215974-59.7945111,30.0064835-1.1234877-1.4823796-2.2469754-2.9491552-3.3548591-4.4315347-34.3912063-46.031787-62.7748743-98.2583603-79.2526936-140.7948523l-.2184559-.3432879Z"></path>
    <path fill="#446bd5" d="m97.9155986,126.987255c9.2843774,5.1493185,32.4719148,20.2695903,42.520888,30.5214154l.093624.031208c2.8555312,2.1533514,3.9166029,6.1479743,2.7931152,9.5184373-.1872479.5929518-.4525159,1.1702997-.7958038,1.7164395l-.6553678,1.0610717-1.1546957,1.9504994-.5461398.9362397-1.3731516,2.2469754c-13.4506442,36.9034496-42.3024321,70.2960002-72.6678075,108.3385414l-.171644.2964759-.3744959.6085558-2.3874113,3.9946229-.3900999.6397638-.3120799.4837239-.8114078,1.3731516c-1.1546957,1.9348955-3.0115712,3.1207991-4.9776746,3.479691-1.8412715.3588919-3.8229789-.062416-5.4770025-1.3107356-10.3142411-4.5719707-30.3341674-17.757347-40.8824685-24.903977-3.8229789-2.5746593-4.8528426-7.8800178-2.3093913-11.8122247,15.6352036-24.5294811,66.9099331-104.9212664,80.6726572-126.6888402,1.9973114-3.1832151,5.9763303-4.2598908,9.2063574-2.4810353Z"></path>
  </g>
  <g>
    <path fill="none" stroke="#0f084b" stroke-linecap="round" stroke-linejoin="round" stroke-width="7.802" d="m96.620467,131.8400977c14.6365479,6.7565301,29.1482638,14.7925878,43.1606518,28.43048l.046812.031208.3432879.2340599c2.2157674,1.5135876,3.3236511,4.0258309,3.1520071,6.5224702-.062416,1.1702997-.4213079,2.3562033-1.0922797,3.417275l-.9986557,1.5760036-1.1859037,1.8880835-.5461398.8738238-1.3575476,2.1533514c-13.4038322,35.26503-37.1843215,71.1854279-67.487281,107.5115297l-.1872479.2808719-.3588919.5773478-2.4030153,3.8229789-.3900999.5929518-.3120799.4681199-.8114078,1.3263396c-2.0285194,3.2768391-6.1791823,4.3379108-9.4872293,2.6370753-.2964759-.15604-.6397638-.3588919-.9362397-.5773478-14.5117159-6.1479743-28.8205799-15.7912435-42.9734039-28.1496081"></path>
    <path fill="none" stroke="#0f084b" stroke-linecap="round" stroke-linejoin="round" stroke-width="7.802" d="M142.2309461 170.4755908s8.3013257 18.5219428 64.3976898 6.943778c14.9018158-3.0583831 36.9346576 2.3562033 42.8485719 2.9023432M70.4681704 284.7592545s35.0933861 25.3096809 42.8485719 30.4277914M357.0667575 169.3364991c-32.5499348 19.8170744-66.5822492 5.8202904-93.2494777 9.7837052-3.698147.5773478-8.6134056 2.0909354-14.308864 4.3067028h-.031208c-21.9704258 8.4417616-55.7686803 26.9637044-78.097998 39.7433768-10.2986371 5.8983103-16.3841954 17.757347-13.7939321 29.3355117 2.9179472 13.0293363 13.8251401 20.9717701 25.4033048 21.408682 4.8216346.2184559 9.7212893-.8738238 14.246448-3.448483 30.3341674-13.3726242 55.0352925-27.0261204 72.8238474-41.1009244 2.6058673-1.4823796 5.8514983-1.2015077 8.1764937.6709718 40.7888445 23.0002895 80.9379252 56.54888 120.7593219 95.2155811.5929518.5617438 1.1702997 1.1234877 1.7632515 1.7008355 1.7632515 1.7008355 3.557711 3.448483 5.3053585 5.1805265 3.573315 2.8867392 6.0075383 6.6316981 7.240254 10.673133 2.4342233 7.8176018.4525159 16.7898993-6.1167663 22.8754575-4.4471387 4.1506628-10.2050131 6.1167663-15.9472835 5.8827063-4.2598908-.15604-8.5353856-1.5447956-12.2023246-4.2130788l-5.1025066-3.7293549-5.7266664-4.1818708-18.7247947-13.6691001-38.916365-28.5709159"></path>
    <path fill="none" stroke="#0f084b" stroke-linecap="round" stroke-linejoin="round" stroke-width="7.802" d="M301.5165331 360.3762172c10.0021612 7.209046 27.3850123 19.9263024 40.7264285 29.7568196 9.9709532 7.3338779 24.0925692 4.6031787 30.6462474-5.9139143 2.0285194-3.2456311 3.0895911-6.8501541 3.1988191-10.4234691.15604-3.495295-.5929518-7.006194-2.1533514-10.1738051-1.3419436-2.7150952-3.2768391-5.1961305-5.7578744-7.22465M284.24291 401.3991216c.2028519.15604.4213079.3120799.6397638.4525159 5.0869026 3.588919 12.3583645 8.8006535 21.5959299 15.5883916 10.0021612 7.3338779 24.0925692 4.6031787 30.6462474-5.9139143 1.9973114-3.2768391 3.0583831-6.8501541 3.1832151-10.4234691.2652679-6.5536782-2.4966393-12.9981283-7.8800178-17.3672471l-31.0675552-23.1563295-4.5095547-3.3548591"></path>
    <path fill="none" stroke="#0f084b" stroke-linecap="round" stroke-linejoin="round" stroke-width="7.802" d="M240.1772265 421.6531079s6.3664302 4.8372386 25.9338407 19.2397266c9.9709532 7.3338779 24.0925692 4.5719707 30.6462474-5.9139143 2.0285194-3.2456311 3.0895911-6.8189461 3.2144231-10.3922611.2340599-6.5536782-2.5122433-13.0605443-7.9112258-17.3984551l-7.177838-5.3365665-.3432879-.2028519-.2964759-.2496639-5.2117345-3.9322069M148.8938522 335.5814682l-26.2459206 24.3266291c-7.6615618 7.099818-19.6298265 6.6473021-26.7296445-1.0298637-3.542107-3.8385829-5.2117345-8.7538415-5.0244866-13.6066842.1872479-4.8372386 2.2469754-9.5964573 6.0543503-13.1541683l17.2424151-15.9940955 9.0035055-8.3013257c7.6771658-7.14663 19.6454305-6.6629061 26.7296445 1.0298637 3.542107 3.8229789 5.2117345 8.7538415 5.0400906 13.5754762-.1872479 4.8216346-2.2469754 9.6120613-6.0699543 13.1541683z"></path>
    <path fill="none" stroke="#0f084b" stroke-linecap="round" stroke-linejoin="round" stroke-width="7.802" d="M223.6525951 385.3582141l.124832-.109228c7.6459578-7.084214 19.6454305-6.6316981 26.7296445 1.0298637 3.542107 3.8853949 5.2117345 8.7538415 5.0400906 13.6066842-.1872479 4.8840506-2.2469754 9.6120613-6.0699543 13.1541683l-9.2999814 8.6134056-16.9459392 15.6976196c-7.6615618 7.084214-19.6298265 6.6316981-26.7608524-1.0298637-3.542107-3.8229789-5.2429425-8.7382375-5.0556946-13.5910802.2184559-4.8372386 2.2469754-9.5964573 6.0855583-13.1385643l26.1522966-24.2330052zM191.6644042 355.3985426c-.7958038 1.0610717-1.6696275 2.0285194-2.6370753 2.9647592l-33.8294625 31.3172192-1.7632515 1.6072115c-8.6602176 8.0516617-22.2356937 7.5367299-30.3029594-1.1546957-3.9946229-4.3691188-5.8983103-9.9085372-5.6954584-15.4011437.2184559-5.4770025 2.5434513-10.8759849 6.8813621-14.9018158l25.3096809-23.4684094 10.2362211-9.4872293c8.7070295-8.0204537 22.2825057-7.5055219 30.3029594 1.1546957 4.0102269 4.3691188 5.9139143 9.9397452 5.6954584 15.4323516-.140436 4.2130788-1.5760036 8.3637416-4.1974748 11.9370566z"></path>
    <path fill="none" stroke="#0f084b" stroke-linecap="round" stroke-linejoin="round" stroke-width="7.802" d="M191.6644042 355.3985426l7.7551858-7.209046c8.6914255-8.0360577 22.2669017-7.5211259 30.3341674 1.1546957 3.9946229 4.3223068 5.9139143 9.9397452 5.6954584 15.3855397-.2184559 5.4926064-2.5434513 10.9071929-6.8813621 14.9486278l-5.3365665 4.9620706-.124832.124832-36.1232498 33.4237586c-8.6914255 8.0360577-22.2669017 7.5211259-30.3341674-1.1859037-4.0258309-4.3535148-5.8983103-9.9085372-5.6954584-15.3855397.1872479-4.2442868 1.5760036-8.3949496 4.2442868-11.9370566.7333878-1.0610717 1.6384195-2.0597274 2.6370753-2.9803632l33.8294625-31.3016152zM498.0956697 269.2956949c-18.2410709 14.4024879-36.3885177 26.4643765-54.3955286 33.4705706-1.1234877-1.4823796-2.2469754-2.9491552-3.3548591-4.4315347-33.7358385-44.4869914-63.882758-88.3810311-80.6102413-130.0593033-.3588919-.8894277-.7177838-1.7944595-1.0610717-2.6838872-.031208-.07802-.093624-.2028519-.124832-.2964759l-2.6370753-4.3067028c1.6384195-1.2639236 3.2768391-2.5434513 4.9620706-3.7917709 15.8848675-11.9058486 34.3756023-22.9690815 55.6750563-33.1428866M443.700141 302.7662654s-29.4759477 15.9628875-42.9421959 21.0809981c-.2340599.093624-.4837239.1872479-.6865758.2808719M443.0759812 102.317338c4.1506628-3.2924431 6.2103902-4.7280107 10.3610531-8.0204537M424.1639385 81.9541238c1.9036875-7.177838 2.0597274-7.7863938 3.9946229-14.9642318M402.4587807 92.8613167c-2.8711352-3.417275-5.7578744-6.8813621-8.6290096-10.2986371"></path>
  </g>
</svg>
