<svg xmlns="http://www.w3.org/2000/svg" id="corporate-culture" viewBox="0 0 64 64">
  <path d="M52.332,17c3.087,0,5.599-2.512,5.599-5.599s-2.512-5.599-5.599-5.599-5.6,2.512-5.6,5.599,2.512,5.599,5.6,5.599ZM52.332,7.866c1.949,0,3.534,1.586,3.534,3.535s-1.586,3.535-3.534,3.535-3.535-1.586-3.535-3.535,1.586-3.535,3.535-3.535Z" style="stroke-width:0"></path>
  <path d="M61.282,19.735c-1.944-1.8-4.199-2.866-4.293-2.91-.382-.179-.833-.107-1.141.179-3.885,3.618-8.295.695-8.48.571-.283-.196-.648-.236-.968-.109-1.552.618-2.782,1.771-3.686,2.798-2.04-1.415-3.823-1.96-3.908-1.985-.344-.101-.718-.018-.986.223-5.041,4.545-10.466.417-10.693.241-.253-.2-.586-.269-.897-.188-1.413.367-2.718.99-3.89,1.858-1.656-2.17-3.9-3.249-4.008-3.3-.376-.177-.824-.112-1.134.168-4.069,3.68-7.808.329-7.963.188-.192-.178-.444-.278-.705-.278-1.978,0-3.749.624-5.264,1.854-2.077,1.685-3.267,4.298-3.267,7.17v5.593c0,.57.462,1.032,1.032,1.032h16.329c.526,0,.969-.397,1.026-.92.006-.058.682-5.832,4.422-9.223.001,0,.002-.002.003-.003,1.044-.948,2.191-1.609,3.492-2.013,1.597,1.039,7.149,4.051,12.424-.238.718.283,2.095.914,3.515,2.04,2.93,2.328,4.441,5.45,4.497,9.278,0,.017-.01.031-.01.048,0,.57.462,1.032,1.032,1.032h.012s0,0,.001,0h.011s0,0,.001,0h15.178c.571,0,1.032-.462,1.032-1.032v-5.805c0-2.384-.991-4.668-2.718-6.267ZM16.478,30.775H7.176v-3.708c0-.57-.462-1.032-1.032-1.032s-1.032.462-1.032,1.032v3.708h-3.047v-4.561c0-2.247.912-4.276,2.503-5.567,1.042-.846,2.248-1.31,3.59-1.382,1.892,1.539,5.892,3.144,9.856.028.688.418,1.868,1.251,2.776,2.491-2.92,3.051-3.973,7.171-4.311,8.991ZM61.935,30.774h-2.155v-3.708c0-.57-.462-1.032-1.032-1.032s-1.032.462-1.032,1.032v3.708h-8.949c-.326-4.419-2.415-7.368-4.432-9.218.823-.922,1.586-1.561,2.369-1.963,2.156,1.238,6.334,2.33,9.993-.595.734.403,2.036,1.191,3.182,2.252,1.307,1.21,2.056,2.942,2.056,4.752v4.773Z" style="stroke-width:0"></path>
  <path d="M13.167 17.347c3.294 0 5.975-2.68 5.975-5.975s-2.68-5.975-5.975-5.975-5.975 2.68-5.975 5.975 2.68 5.975 5.975 5.975ZM13.167 7.462c2.156 0 3.91 1.754 3.91 3.91s-1.754 3.91-3.91 3.91-3.91-1.754-3.91-3.91 1.754-3.91 3.91-3.91ZM32.328 16.236c3.854 0 6.989-3.135 6.989-6.989s-3.135-6.989-6.989-6.989-6.989 3.135-6.989 6.989 3.135 6.989 6.989 6.989ZM32.328 4.322c2.716 0 4.924 2.209 4.924 4.925s-2.209 4.925-4.924 4.925-4.924-2.209-4.924-4.925 2.209-4.925 4.924-4.925ZM57.57 36.55c-1.665-.678-3.572-.005-4.444 1.565l-2.466 4.443c-.461.832-1.094 1.535-1.859 2.074-.085-.644-.361-1.267-.83-1.775-1.128-1.219-2.985-1.396-4.323-.411l-7.184 5.294c-.264.195-.42.503-.42.831v12.139c0 .57.462 1.032 1.032 1.032h8.729c.571 0 1.032-.462 1.032-1.032v-4.565c4.468-.935 8.281-4.132 10.03-8.444l2.65-6.531c.734-1.81-.141-3.882-1.949-4.62ZM57.605 40.394l-2.65 6.531c-1.546 3.813-4.979 6.602-8.959 7.278-.19.032-.301.046-.315.048-.517.063-.908.503-.908 1.025v4.401h-6.664v-10.585l6.764-4.985c.49-.36 1.169-.296 1.583.15.433.47.415 1.209-.037 1.657-.01.009-.02.019-.03.029l-1.24 1.189c-.411.395-.424 1.048-.03 1.459.395.412 1.047.425 1.46.03l1.136-1.09 1.045-.496c1.579-.748 2.861-1.951 3.707-3.478l2.465-4.442c.365-.656 1.161-.939 1.859-.655.757.308 1.122 1.175.816 1.932ZM20.351 42.445c-1.337-.985-3.195-.807-4.323.411-.469.508-.745 1.131-.83 1.774-.765-.538-1.398-1.242-1.86-2.074l-2.465-4.443c-.871-1.568-2.778-2.242-4.444-1.564-1.807.737-2.682 2.81-1.949 4.62l2.65 6.53c1.749 4.313 5.562 7.509 10.03 8.444v4.565c0 .57.462 1.032 1.032 1.032h8.729c.571 0 1.032-.462 1.032-1.032v-12.139c0-.328-.156-.636-.42-.831l-7.184-5.295ZM25.891 59.678h-6.664v-4.401c0-.522-.391-.962-.908-1.025-.013-.002-.125-.016-.315-.048-3.98-.676-7.412-3.465-8.959-7.279l-2.65-6.53c-.306-.757.058-1.624.816-1.933.698-.285 1.495-.002 1.859.654l2.464 4.442c.847 1.527 2.129 2.73 3.708 3.478l1.045.496 1.136 1.09c.412.395 1.066.382 1.46-.03.394-.411.381-1.065-.03-1.459l-1.24-1.189c-.01-.01-.02-.019-.03-.029-.453-.448-.471-1.187-.037-1.657.412-.445 1.092-.511 1.583-.151l6.764 4.985v10.585Z" style="stroke-width:0"></path>
</svg>
