<svg xmlns="http://www.w3.org/2000/svg" viewBox="0 0 512 512" id="growth">
  <linearGradient id="a" x1="17.702" x2="496.075" y1="521.659" y2="43.285" gradientUnits="userSpaceOnUse">
    <stop offset="0" stop-color="#fcc60e"></stop>
    <stop offset="1" stop-color="#e92e29"></stop>
  </linearGradient>
  <path fill="url(#a)" d="M409.259 30.866a8 8 0 0 1 7.555-8.422l51.847-2.814a8 8 0 0 1 8.35 9.141l-7.481 51.381a8.002 8.002 0 0 1-9.069 6.764 8 8 0 0 1-6.764-9.069l4.26-29.26c-60.993 54.512-128.47 102.984-200.818 144.22-67.415 38.424-140.828 71.569-218.2 98.514a7.993 7.993 0 0 1-2.631.447 8.002 8.002 0 0 1-2.63-15.557c158.269-55.118 297.259-135.621 413.42-239.387l-29.417 1.597c-4.415.229-8.182-3.143-8.422-7.555zm99.61 438.669V504a8 8 0 0 1-8 8H11.356a8 8 0 0 1-8-8v-34.465a8 8 0 0 1 8-8H35.13V345.163a8 8 0 0 1 8-8h64.829a8 8 0 0 1 8 8v116.373h39.549V280a8 8 0 0 1 8-8h64.831a8 8 0 0 1 8 8v181.536h39.549v-249.58a8 8 0 0 1 8-8h64.83a8 8 0 0 1 8 8v249.579h39.546v-310.79a8 8 0 0 1 8-8h64.83a8 8 0 0 1 8 8v310.79h23.774a8 8 0 0 1 8.001 8zm-96.605-8h48.83v-302.79h-48.83v302.79zm-120.375 0h48.83V219.956h-48.83v241.579zm-120.38 0h48.831V288h-48.831v173.535zm-120.378 0H99.96V353.163H51.131v108.372zm441.738 16H19.356V496h473.512v-18.465zM3.131 114.042V88.788a8 8 0 0 1 6.735-7.899l22.215-3.556a76.064 76.064 0 0 1 4.198-10.125L23.083 48.98a8 8 0 0 1 .823-10.348l17.857-17.857a7.998 7.998 0 0 1 10.348-.823l18.226 13.196a75.95 75.95 0 0 1 10.126-4.199L84.02 6.735A8 8 0 0 1 91.919 0h25.254a8 8 0 0 1 7.899 6.736l3.556 22.213a75.81 75.81 0 0 1 10.125 4.2l18.227-13.197a8 8 0 0 1 10.348.823l17.857 17.857a8 8 0 0 1 .823 10.348l-13.197 18.228a75.954 75.954 0 0 1 4.198 10.125l22.216 3.556a8 8 0 0 1 6.735 7.899v25.254a8 8 0 0 1-6.735 7.899l-22.214 3.556a75.755 75.755 0 0 1-4.2 10.125l13.197 18.227a8 8 0 0 1-.823 10.348l-17.857 17.857a8 8 0 0 1-10.348.823l-18.228-13.197a75.864 75.864 0 0 1-10.124 4.198l-3.556 22.216a8 8 0 0 1-7.899 6.735H91.919a8 8 0 0 1-7.899-6.735l-3.556-22.214a75.755 75.755 0 0 1-10.125-4.2l-18.227 13.197a8 8 0 0 1-10.348-.823l-17.857-17.857a8 8 0 0 1-.823-10.348l13.197-18.228a75.877 75.877 0 0 1-4.198-10.125L9.868 121.94a7.998 7.998 0 0 1-6.737-7.898zm16-6.821 20.462 3.275a8.002 8.002 0 0 1 6.486 5.917 59.968 59.968 0 0 0 6.523 15.731 8 8 0 0 1-.401 8.771l-12.158 16.792 8.21 8.21 16.792-12.158a8 8 0 0 1 8.772-.401 59.904 59.904 0 0 0 15.729 6.523 8 8 0 0 1 5.918 6.486l3.275 20.461h11.611l3.275-20.463a8.002 8.002 0 0 1 5.917-6.486 59.978 59.978 0 0 0 15.73-6.522 7.999 7.999 0 0 1 8.772.401l16.792 12.158 8.211-8.21-12.158-16.792a8 8 0 0 1-.401-8.772 59.904 59.904 0 0 0 6.523-15.729 8 8 0 0 1 6.486-5.918l20.461-3.275V95.609l-20.463-3.276a8.002 8.002 0 0 1-6.486-5.917 59.984 59.984 0 0 0-6.522-15.73 8 8 0 0 1 .401-8.772l12.158-16.792-8.211-8.21-16.788 12.158a8 8 0 0 1-8.772.401 59.933 59.933 0 0 0-15.73-6.524 8 8 0 0 1-5.917-6.486L110.352 16H98.741l-3.275 20.461a8.002 8.002 0 0 1-5.917 6.486 59.982 59.982 0 0 0-15.731 6.523 8 8 0 0 1-8.772-.401L48.254 36.912l-8.21 8.21 12.158 16.792a7.999 7.999 0 0 1 .401 8.771 59.919 59.919 0 0 0-6.522 15.73 7.998 7.998 0 0 1-6.486 5.917l-20.463 3.276v11.613zm40.101-5.806c0-24.986 20.328-45.314 45.314-45.314s45.314 20.328 45.314 45.314-20.328 45.314-45.314 45.314-45.314-20.328-45.314-45.314zm16 0c0 16.164 13.15 29.314 29.314 29.314s29.314-13.15 29.314-29.314-13.15-29.314-29.314-29.314-29.314 13.15-29.314 29.314z"></path>
</svg>
