<svg xmlns="http://www.w3.org/2000/svg" width="682.667" height="682.667" fill-rule="evenodd" clip-rule="evenodd" image-rendering="optimizeQuality" shape-rendering="geometricPrecision" text-rendering="geometricPrecision" viewBox="0 0 7111 7111" id="new-business">
  <polygon fill="#fe5022" points="5521 6181 2249 6181 2249 6474 5521 6474"></polygon>
  <polygon fill="#fe5022" points="1534 7008 1534 6181 965 6181 965 7008"></polygon>
  <polygon fill="#7ed63f" points="1775 6181 1775 7008 2008 7008 2008 6181"></polygon>
  <polygon fill="#fe5022" points="2249 6716 2249 7008 5521 7008 5521 6716"></polygon>
  <polygon fill="#7ed63f" points="5763 6272 5763 6917 6308 6595"></polygon>
  <path fill="#fe5022" d="M3113 5465c425,0 771,-346 771,-771l0 -1620c-235,-176 -474,-410 -474,-1094 0,-419 164,-801 430,-1085 -107,-306 -398,-515 -727,-515 -301,0 -567,173 -694,434 401,29 703,262 746,720 7,67 -42,126 -108,132 -67,6 -126,-42 -132,-109 -16,-172 -78,-301 -184,-385 -193,-152 -465,-115 -493,-114 -493,8 -863,495 -722,984 15,53 -7,109 -55,137 -263,154 -426,439 -426,744 0,304 163,589 426,743 48,28 70,85 55,138 -140,487 226,974 722,984 28,0 300,38 494,-116 105,-84 167,-213 183,-384 6,-66 65,-115 132,-109 66,7 115,66 108,132 -43,458 -345,691 -746,720 127,262 393,434 694,434zm-951 -2369c-42,0 -84,-3 -125,-11 -66,-11 -110,-74 -98,-140 12,-65 74,-109 140,-98 111,20 227,0 325,-57 230,-133 310,-429 177,-660 -34,-58 -14,-131 44,-165 57,-33 131,-13 165,44 132,229 124,500 5,716 93,190 301,298 516,260 66,-12 128,32 140,98 11,65 -33,128 -98,140 -280,49 -561,-67 -721,-300 -131,112 -298,173 -470,173z"></path>
  <polygon fill="#7ed63f" points="4599 4273 5397 4273 5397 4066 4599 4066"></polygon>
  <path fill="#7ed63f" d="M5119 3824l281 0c32,-554 280,-734 502,-895 237,-172 442,-321 442,-949 0,-742 -604,-1346 -1346,-1346 -742,0 -1346,604 -1346,1346 0,609 193,768 422,934 235,166 490,352 522,910l281 0 0 -1277 -177 0c-67,0 -121,-54 -121,-121 0,-67 54,-121 121,-121l596 0c67,0 121,54 121,121 0,67 -54,121 -121,121l-177 0 0 1277z"></path>
  <path fill="#360b4b" d="M5504 5801c23,0 43,6 62,18l902 533c78,47 78,161 0,208l-902 533c-19,12 -40,18 -63,18l-4798 0c-67,0 -121,-54 -121,-121l0 -1068c0,-67 54,-121 121,-121l4799 0zm-3481 -2844c-42,0 -83,-3 -125,-11 -66,-11 -109,-74 -98,-140 12,-65 74,-109 140,-98 111,20 227,0 325,-57 230,-133 310,-429 177,-660 -34,-57 -14,-131 44,-165 58,-33 131,-13 165,45 132,228 125,499 5,715 93,190 301,298 516,260 66,-12 128,32 140,98 11,66 -32,128 -98,140 -280,49 -561,-67 -721,-300 -131,112 -298,173 -470,173zm951 2611c-437,0 -818,-277 -957,-684 -586,-63 -995,-615 -883,-1197 -292,-206 -470,-544 -470,-903 0,-360 178,-698 470,-903 -112,-582 297,-1134 883,-1198 139,-406 520,-683 957,-683 399,0 754,232 917,583 268,-207 604,-330 968,-330 876,0 1588,713 1588,1588 0,751 -288,960 -542,1145 -212,153 -409,296 -405,820l0 449c0,67 -54,121 -121,121l-1039 0c-67,0 -121,-54 -121,-121l0 -449c0,-379 -97,-555 -233,-683l0 1432c0,559 -454,1013 -1012,1013zm727 -4812c-107,-306 -397,-514 -727,-514 -301,0 -567,172 -693,433 400,29 702,262 745,720 7,67 -42,126 -108,132 -67,6 -126,-42 -132,-109 -16,-171 -78,-301 -184,-384 -193,-153 -465,-116 -493,-115 -493,9 -862,496 -722,984 15,53 -7,110 -55,137 -263,155 -426,439 -426,744 0,304 163,589 426,743 48,28 70,85 55,138 -140,487 226,974 722,984 28,0 301,38 494,-116 105,-83 167,-213 183,-384 6,-66 65,-115 132,-108 66,6 115,65 108,131 -43,459 -345,692 -745,720 126,262 392,434 693,434 425,0 771,-346 771,-771l0 -1620c-235,-176 -474,-410 -474,-1094 0,-419 164,-801 430,-1085zm234 2019c235,166 490,352 522,910l281 0 0 -1277 -177 0c-67,0 -121,-54 -121,-121 0,-67 54,-121 121,-121l596 0c67,0 121,54 121,121 0,67 -54,121 -121,121l-177 0 0 1277 281 0c32,-553 281,-734 502,-895 237,-172 442,-321 442,-949 0,-742 -603,-1346 -1346,-1346 -742,0 -1346,604 -1346,1346 0,610 193,768 422,934zm1448 3802l-3273 0 0 293 3273 0 0 -293zm-3273 -242l3273 0 0 -293 -3273 0 0 293zm2350 -2201l798 0 0 -207 -798 0 0 207zm933 714l-1067 0c-67,0 -121,-54 -121,-121 0,-67 54,-121 121,-121l1067 0c66,0 120,54 120,121 0,67 -54,121 -120,121zm-236 466l-596 0c-67,0 -121,-54 -121,-120 0,-67 54,-121 121,-121l596 0c67,0 121,54 121,121 0,66 -54,120 -121,120zm467 819l0 646 545 -323 -545 -323zm-3988 737l233 0 0 -828 -233 0 0 828zm-810 0l569 0 0 -828 -569 0 0 828z"></path>
</svg>
