<svg xmlns="http://www.w3.org/2000/svg" xml:space="preserve" width="163.839" height="163.839" style="shape-rendering:geometricPrecision;text-rendering:geometricPrecision;image-rendering:optimizeQuality;fill-rule:evenodd;clip-rule:evenodd" viewBox="0 0 1707 1707" id="problem-solving">
  <defs>
    <linearGradient id="id0" x1="765.843" x2="941.031" y1="1695.04" y2="11.831" gradientUnits="userSpaceOnUse">
      <stop offset="0" style="stop-opacity:1;stop-color:#1e8ac6"></stop>
      <stop offset=".302" style="stop-opacity:1;stop-color:#834fbc"></stop>
      <stop offset="1" style="stop-opacity:1;stop-color:#e813b1"></stop>
    </linearGradient>
  </defs>
  <g id="Layer_x0020_1">
    <path d="M1401 1623c-75,0 -75,-114 0,-114 76,0 76,114 0,114zm-628 -1488c-10,0 -17,-8 -17,-17l0 -84c0,-22 33,-22 33,0l0 84c0,9 -7,17 -16,17zm-585 337c-9,0 -69,-37 -81,-44 -19,-11 -3,-40 16,-29l73 42c15,8 9,31 -8,31zm247 -247c-6,0 -11,-3 -14,-8l-42 -73c-11,-19 18,-36 28,-17l43 73c6,11 -2,25 -15,25zm-333 585l-85 0c-22,0 -22,-33 0,-33l85 0c22,0 22,33 0,33zm418 561c0,-1 -1,-3 -1,-4 -43,-338 -272,-220 -272,-606 0,-270 202,-495 470,-523 10,-1 19,7 19,17l0 147c0,23 -29,14 -36,14 -81,0 -81,123 0,123 7,0 36,-9 36,14l0 237 240 0c23,0 14,29 14,36 0,81 123,81 123,0 0,-7 -9,-36 14,-36l152 0c10,0 18,8 17,18 -19,330 -229,234 -270,559l-71 213c-8,27 -36,109 -113,109l-139 0c-90,0 -113,-107 -132,-165l-51 -153zm475 -23c46,-315 243,-237 267,-524l-116 0c1,53 -42,97 -95,97 -52,0 -95,-44 -94,-97l-238 0c-9,0 -17,-8 -17,-17l0 -235c-52,1 -97,-41 -97,-94 0,-53 45,-96 97,-95l0 -109c-241,34 -421,240 -421,487 0,364 220,251 269,587l109 0 0 -305 -84 -96c-14,-16 11,-38 25,-21l88 100c2,3 4,7 4,11l0 311 64 0 0 -311c0,-22 33,-22 33,0l0 311 64 0 0 -311c0,-4 1,-8 4,-11l88 -100c14,-17 39,5 25,21l-84 96 0 305 109 0zm-436 34l40 120 347 0 40 -120 -427 0zm51 153c18,58 36,121 93,121l139 0c56,0 74,-63 93,-121l-325 0zm548 -828c-53,0 -95,-43 -95,-97l-131 0c-9,0 -16,-7 -16,-16l0 -128c-53,1 -97,-42 -97,-95 0,-53 43,-96 97,-95l0 -128c0,-9 8,-17 18,-16 241,25 436,217 466,457 3,14 -8,22 -16,21l-131 0c1,54 -42,97 -95,97zm-209 -130l133 0c24,0 15,28 15,36 0,80 122,80 122,0 0,-8 -9,-36 15,-36l131 0c-34,-211 -204,-379 -416,-410l0 128c0,24 -28,15 -36,15 -80,0 -80,122 0,122 8,0 36,-9 36,15l0 130zm452 1112c-168,0 -304,-136 -304,-304 0,-168 136,-305 304,-305 168,0 305,137 305,305 0,168 -137,304 -305,304zm0 -575c-149,0 -271,121 -271,271 0,149 122,271 271,271 150,0 272,-122 272,-271 0,-150 -122,-271 -272,-271zm0 370c-28,0 -52,-24 -52,-53l0 -232c0,-69 105,-69 105,0l0 232c0,29 -24,53 -53,53zm0 -304c-10,0 -19,8 -19,19l0 232c0,25 38,25 38,0l0 -232c0,-11 -8,-19 -19,-19zm0 362c-31,0 -31,48 0,48 32,0 32,-48 0,-48z" style="fill:url(#id0)"></path>
  </g>
</svg>
