<svg xmlns="http://www.w3.org/2000/svg" width="32" height="32" id="time-management">
  <path fill="#263238" d="M22.274 2.368a1 1 0 1 1 1.519 1.3l-1.859 2.174c.279.186.542.392.793.61l1.825-2.134c.348-.406.516-.923.475-1.456a1.982 1.982 0 0 0-.694-1.362c-.806-.691-2.132-.587-2.82.22L19.01 4.647a7.8 7.8 0 0 1 1.07.287l2.194-2.566zM13.5 6.072a.502.502 0 0 1-.434-.25l-.5-.866a.5.5 0 0 1 .866-.5l.5.866a.5.5 0 0 1-.432.75zM17.5 5a.5.5 0 0 1-.5-.5v-1a.5.5 0 0 1 1 0v1a.5.5 0 0 1-.5.5zm1-2a.5.5 0 0 1-.5-.5V2h-1v.5a.5.5 0 0 1-1 0v-1a.5.5 0 0 1 .5-.5h2a.5.5 0 0 1 .5.5v1a.5.5 0 0 1-.5.5zm2.249 3.876a.517.517 0 0 1 .233.296.506.506 0 0 1-.36.624.521.521 0 0 1-.606-.35c-.037-.136-.016-.274.049-.386s.173-.201.305-.228a.49.49 0 0 1 .379.044zm-6 10.393a.47.47 0 0 1 .228.305.467.467 0 0 1-.045.378.464.464 0 0 1-.305.228.51.51 0 0 1-.611-.34.506.506 0 0 1 .346-.62.502.502 0 0 1 .387.049zm8.377-8.015a.518.518 0 0 1 .054.373.507.507 0 0 1-.624.36.522.522 0 0 1-.35-.606.507.507 0 0 1 .237-.31.467.467 0 0 1 .378-.045c.137.037.24.116.305.228zm-10.392 6c.065.113.086.25.045.378a.473.473 0 0 1-.228.305.466.466 0 0 1-.377.045.51.51 0 0 1-.359-.601.512.512 0 0 1 .237-.311.498.498 0 0 1 .373-.053.515.515 0 0 1 .309.237zm11.263-2.751c0 .13-.05.25-.14.35a.508.508 0 0 1-.72 0 .521.521 0 0 1 0-.7c.1-.1.23-.15.36-.15.13 0 .26.05.35.15.1.1.15.22.15.35zm-12 0c0 .13-.05.26-.15.35a.47.47 0 0 1-.35.15.47.47 0 0 1-.35-.15.512.512 0 0 1-.011-.7.508.508 0 0 1 .71-.01c.101.1.151.23.151.36zM23.126 15.751a.517.517 0 0 1-.296.233.506.506 0 0 1-.624-.36.521.521 0 0 1 .35-.606c.137-.037.274-.015.387.05s.2.173.228.305a.483.483 0 0 1-.045.378zm-10.392-6a.47.47 0 0 1-.305.228.467.467 0 0 1-.378-.045.464.464 0 0 1-.228-.305.51.51 0 0 1 .341-.611.506.506 0 0 1 .62.346.506.506 0 0 1-.05.387zM20.749 18.129a.518.518 0 0 1-.373.054.507.507 0 0 1-.36-.624.522.522 0 0 1 .606-.35.512.512 0 0 1 .311.237c.065.113.086.25.044.378a.488.488 0 0 1-.228.305zm-6-10.392a.471.471 0 0 1-.378.045.473.473 0 0 1-.305-.228.464.464 0 0 1-.045-.378.51.51 0 0 1 .601-.359.512.512 0 0 1 .311.237.498.498 0 0 1-.184.683zM17.5 19c-.13 0-.25-.05-.35-.14a.508.508 0 0 1 0-.72c.19-.18.51-.18.7 0 .1.1.15.23.15.36 0 .13-.05.26-.15.35-.1.1-.22.15-.35.15zm0-12a.47.47 0 0 1-.35-.15.47.47 0 0 1-.15-.35c0-.13.05-.26.15-.35a.51.51 0 0 1 .7-.01.508.508 0 0 1 .01.71c-.1.1-.23.15-.36.15zM17.5 14c-.827 0-1.5-.673-1.5-1.5s.673-1.5 1.5-1.5 1.5.673 1.5 1.5-.673 1.5-1.5 1.5zm0-2a.5.5 0 1 0 0 1 .5.5 0 0 0 0-1z"></path>
  <path fill="#263238" d="M13.48 21.275h-.016a.5.5 0 0 1-.484-.516c.174-5.555-3.61-6.975-3.648-6.988a.5.5 0 0 1-.332-.47v-2.893c0-.127.049-.25.136-.343l.652-.691c.669-.745.987-1.425.936-2.012-.048-.549-.417-.949-.726-1.214L7.021 9.461 5.82 15.056l1.888 5.027a.501.501 0 0 1-.935.357l-1.94-5.166a.496.496 0 0 1-.021-.283l1.26-5.869a.495.495 0 0 1 .116-.229l3.384-3.768a.5.5 0 0 1 .705-.04l.108.087c.37.291 1.237.971 1.335 2.102.076.874-.327 1.808-1.196 2.776l-.524.557v2.367c1.045.511 4.146 2.48 3.979 7.817a.499.499 0 0 1-.499.484zM24.813 10.12c-.477 0-.938-.171-1.299-.481a1.988 1.988 0 0 1-.694-1.363 1.986 1.986 0 0 1 .475-1.456l.159-.203c.712-.834 2.027-.927 2.833-.235.405.346.652.831.694 1.363a1.986 1.986 0 0 1-.475 1.456l-.159.203a2.008 2.008 0 0 1-1.534.716zm.173-3.219a.996.996 0 0 0-.76.35l-.159.204a1.007 1.007 0 0 0-.25.744.991.991 0 0 0 .347.681c.405.349 1.065.294 1.409-.109l.159-.203c.187-.219.271-.478.25-.744a.991.991 0 0 0-.347-.681.989.989 0 0 0-.649-.242z"></path>
  <path fill="#263238" d="M25.569 13.641c-.477 0-.938-.171-1.299-.481a1.988 1.988 0 0 1-.694-1.363 1.986 1.986 0 0 1 .475-1.456l.76-.877c.684-.802 2.012-.908 2.818-.217.405.346.652.831.694 1.363a1.986 1.986 0 0 1-.475 1.456l-.76.877a1.997 1.997 0 0 1-1.519.698zm.76-3.875a.996.996 0 0 0-.76.35l-.76.878a.99.99 0 0 0-.235.726.991.991 0 0 0 .347.681 1.025 1.025 0 0 0 1.409-.109l.76-.877a.99.99 0 0 0 .235-.726.991.991 0 0 0-.347-.681.989.989 0 0 0-.649-.242zM23.846 6.927c.009-.011.021-.019.03-.029A8.47 8.47 0 0 0 17.5 4c-1.807 0-3.531.56-4.986 1.618a.5.5 0 0 0 .588.808A7.43 7.43 0 0 1 17.5 5a7.489 7.489 0 0 1 5.851 2.819c.05-.241.152-.474.323-.674l.172-.218zm.224 9.184a7.504 7.504 0 0 1-8.442 3.655.499.499 0 1 0-.246.968A8.561 8.561 0 0 0 17.5 21c3.039 0 5.702-1.608 7.205-4.012-.051-.034-.108-.05-.156-.091a1.49 1.49 0 0 1-.479-.786z"></path>
  <path fill="#263238" d="M25.522 17.757c-.477 0-.938-.171-1.299-.481a1.988 1.988 0 0 1-.694-1.363 1.986 1.986 0 0 1 .475-1.456l.76-.877c.684-.802 2.012-.909 2.818-.217.405.346.652.831.694 1.363a1.986 1.986 0 0 1-.475 1.456l-.76.877a1.997 1.997 0 0 1-1.519.698zm.76-3.875a.996.996 0 0 0-.76.35l-.76.878a.99.99 0 0 0-.235.726.991.991 0 0 0 .347.681 1.024 1.024 0 0 0 1.409-.109l.76-.877a.99.99 0 0 0 .235-.726.991.991 0 0 0-.347-.681.989.989 0 0 0-.649-.242zM15.768 27.815a.5.5 0 0 0-.147-.691l-8.275-5.371a.5.5 0 0 0-.691.147L5.3 23.986l.839.544 1.082-1.667 7.436 4.826-.955 1.471a.489.489 0 0 0-.072.234l.732.475a.484.484 0 0 0 .179-.164l1.227-1.89z"></path>
  <path fill="#263238" d="M25.047 18.601a.5.5 0 0 0-.695.131c-3.523 5.169-6.406 7.453-8.813 6.979a.493.493 0 0 0-.514.216l-.647.985.839.544.468-.712c3.673.422 7.159-4.024 9.494-7.45a.499.499 0 0 0-.132-.693zM14.887 31.042a.5.5 0 0 1-.466-.681l-9.17-5.956-3.29 5.121a.5.5 0 1 1-.841-.541l3.562-5.543a.498.498 0 0 1 .692-.149l9.977 6.479a.5.5 0 0 1 .166.66l-.191.35a.5.5 0 0 1-.439.26zM17.5 12a.5.5 0 0 1-.5-.5V8a.5.5 0 0 1 1 0v3.5a.5.5 0 0 1-.5.5z"></path>
</svg>
