<svg xmlns="http://www.w3.org/2000/svg" viewBox="0 0 64 64" id="businessman">
  <circle cx="32" cy="32" r="32" fill="#ffd05c"></circle>
  <path fill="#5dafd8" d="M42.3,45.65A2.12,2.12,0,0,1,41,47.46c-4,1.31-14.77,1.49-14.77,1.49l.08,0H26l0,0s-10.73-.18-14.77-1.49A2.1,2.1,0,0,1,10,45.65l.88-7.78s1.57-3.78,9.61-5.28l0,0H31.83l0,0c8,1.5,9.61,5.28,9.61,5.28Z"></path>
  <ellipse cx="33.39" cy="23.71" fill="#ecb285" rx="2.71" ry="1.17" transform="rotate(-75.97 33.391 23.714)"></ellipse>
  <ellipse cx="18.92" cy="23.71" fill="#ecb285" rx="1.17" ry="2.71" transform="rotate(-14.03 18.946 23.698)"></ellipse>
  <polygon fill="#f2d7bc" points="26.32 48.92 26.39 48.92 26.32 48.95 26.32 48.92"></polygon>
  <polygon fill="#f2d7bc" points="26.15 48.91 26.2 48.91 26.2 48.95 26.15 48.91"></polygon>
  <path fill="#ecb285" d="M30.17,35.1c-2.41,1.3-5.13,1.12-8,0V27.93h8Z"></path>
  <path fill="#2d434f" d="M31.8,32.59c-.53-.1-1-.34-1.63-.42,0,1.6-1.47,2.66-2.61,3.13a8.16,8.16,0,0,1-1.4.43,8.16,8.16,0,0,1-1.4-.43c-1.14-.47-2.6-1.37-2.61-3,0,0-1.63.25-1.63.26l0,0s0,3.71,5.24,4.88l.37.08h.12l.13,0c5.51-1.11,5.48-4.93,5.48-4.93Z"></path>
  <ellipse cx="26.16" cy="21.72" fill="#f4c6a6" rx="7.11" ry="10.29"></ellipse>
  <path fill="#2d434f" d="M19.43 25.07a17.34 17.34 0 0 0 .69-6.14s-.4-2.48 3.38-1.49a11.51 11.51 0 0 0 7.22-.69s1.68-1 1.47 4.13a23.43 23.43 0 0 1 .65 4.36s3-8.83-.49-12.38-12.2-2.37-13.67 2.08C18.68 14.93 17 16.78 19.43 25.07zM56.5 35V48.39a1.78 1.78 0 0 1-1.78 1.79H35.17a1.79 1.79 0 0 1-1.79-1.79V35z"></path>
  <path fill="#445c6c" d="M56.5,34.54V47.88a1.78,1.78,0,0,1-1.78,1.78H35.17a1.79,1.79,0,0,1-1.79-1.78V34.54Z"></path>
  <path fill="#2d434f" d="M56.5,34.25v5.17a1.84,1.84,0,0,1-1.84,1.84H35.23a1.84,1.84,0,0,1-1.84-1.84V34.25Z"></path>
  <path fill="#445c6c" d="M56.5,33.87V39a1.84,1.84,0,0,1-1.84,1.84H35.23A1.84,1.84,0,0,1,33.39,39V33.87Z"></path>
  <path fill="#58717f" d="M40.52,32.33v1.43h.61V33h7.64v.71h.61V32.33Z"></path>
  <polygon fill="#58717f" points="49.76 34.63 40.13 34.63 39.67 33.48 50.22 33.48 49.76 34.63"></polygon>
  <circle cx="40.84" cy="34.06" r=".3" fill="#2d434f"></circle>
  <circle cx="49.05" cy="34.06" r=".3" fill="#2d434f"></circle>
  <path fill="#58717f" d="M39.29,47.33l-1,.85-1-.85V36.71A.68.68,0,0,1,38,36h.64a.68.68,0,0,1,.68.68Z"></path>
  <circle cx="38.29" cy="45.34" r=".38" fill="#2d434f"></circle>
  <circle cx="38.29" cy="41.42" r=".38" fill="#2d434f"></circle>
  <path fill="#2d434f" d="M39.42,42.52v1.85H37.16V42.52h2.26m.28-.28H36.88v2.42h2.83V42.24Z"></path>
  <rect width="1.56" height=".57" x="37.51" y="42.1" fill="#2d434f"></rect>
  <rect width=".46" height="1.12" x="38.06" y="42.67" fill="#2d434f"></rect>
  <path fill="#58717f" d="M52.6,47.33l-1,.85-1-.85V36.71a.68.68,0,0,1,.68-.68h.64a.68.68,0,0,1,.68.68Z"></path>
  <circle cx="51.6" cy="45.34" r=".38" fill="#2d434f"></circle>
  <circle cx="51.6" cy="41.42" r=".38" fill="#2d434f"></circle>
  <path fill="#2d434f" d="M52.73,42.52v1.85H50.47V42.52h2.26m.28-.28H50.19v2.42H53V42.24Z"></path>
  <rect width="1.56" height=".57" x="50.82" y="42.1" fill="#2d434f"></rect>
  <rect width=".46" height="1.12" x="51.37" y="42.67" fill="#2d434f"></rect>
</svg>
